<svg xmlns="http://www.w3.org/2000/svg" xmlns:xlink="http://www.w3.org/1999/xlink" version="1.1" id="svg" x="0px" y="0px" width="400px" height="405px" viewBox="0 0 400 405.268" enable-background="new 0 0 400 405.268" xml:space="preserve" ><rect id="svgEditorBackground" x="0" y="0" width="400" height="405.26800537109375" style="fill: none; stroke: none;"/>
<g id="svgg">
	<path id="path0" fill="#D8D8D8" d="M28.136,78.622c0,4.792,0.058,6.753,0.13,4.357c0.072-2.396,0.072-6.317,0-8.714   C28.194,71.869,28.136,73.83,28.136,78.622 M94.428,135.892c0,0.07,0.592,0.662,1.317,1.317l1.317,1.19l-1.191-1.317   C94.762,135.854,94.428,135.579,94.428,135.892 M245.317,180.243c5.309,0.064,13.88,0.064,19.047,0   c5.167-0.064,0.823-0.117-9.653-0.117S240.007,180.179,245.317,180.243 M28.546,247.416c0,6.019,0.056,8.537,0.126,5.597   c0.069-2.94,0.069-7.864,0-10.942C28.603,238.993,28.546,241.398,28.546,247.416 M71.429,376.797c2.173,0.072,5.729,0.072,7.902,0   c2.174-0.073,0.395-0.133-3.951-0.133C71.033,376.664,69.255,376.724,71.429,376.797 M100.811,376.788   c0.724,0.089,1.909,0.089,2.634,0c0.724-0.09,0.131-0.164-1.317-0.164C100.679,376.624,100.086,376.698,100.811,376.788"/>
	<path id="path1" fill="#FFFFFF" d="M229.686,198.075c5.182,0.064,13.663,0.064,18.845,0c5.182-0.065,0.942-0.117-9.423-0.117   C228.744,197.958,224.504,198.01,229.686,198.075 M87.256,376.797c2.408,0.072,6.238,0.072,8.511-0.001   c2.272-0.072,0.302-0.13-4.379-0.13C86.707,376.666,84.848,376.725,87.256,376.797"/>
	<path id="path2" fill="#408080" d="M36.474,11.474c0,0.07,0.593,0.663,1.317,1.317l1.317,1.191l-1.19-1.317   C36.809,11.437,36.474,11.161,36.474,11.474 M387.209,12.665l-1.191,1.317l1.317-1.191c1.228-1.109,1.504-1.443,1.191-1.443   C388.456,11.348,387.863,11.94,387.209,12.665 M368.971,30.496l-1.189,1.318l1.316-1.191c0.726-0.654,1.317-1.247,1.317-1.317   C370.415,28.993,370.081,29.269,368.971,30.496 M38.095,38.298c0.756,0.78,1.466,1.418,1.578,1.418   c0.111,0-0.416-0.638-1.172-1.418c-0.757-0.78-1.466-1.419-1.578-1.419C36.812,36.879,37.339,37.518,38.095,38.298 M80.446,81.054   c0.87,0.891,1.674,1.621,1.785,1.621c0.112,0-0.509-0.73-1.38-1.621c-0.871-0.892-1.674-1.621-1.786-1.621   C78.954,79.433,79.575,80.162,80.446,81.054 M218.541,107.294c4.179,0.066,11.018,0.066,15.198,0   c4.179-0.066,0.759-0.119-7.599-0.119C217.781,107.175,214.362,107.228,218.541,107.294 M365.3,111.854   c0,2.563,0.066,3.612,0.146,2.33c0.081-1.281,0.081-3.379,0-4.66C365.366,108.242,365.3,109.291,365.3,111.854 M122.374,123.303   c0.994,1.059,1.86,1.925,1.925,1.925c0.304,0-0.017-0.364-1.807-2.043l-1.925-1.807L122.374,123.303 M164.927,166.261   c1.68,1.79,2.044,2.111,2.044,1.807c0-0.065-0.867-0.931-1.925-1.925l-1.925-1.807L164.927,166.261"/>
	<path id="path3" fill="#9C6956" d="M0.012000000000000004,202.533l-0.012000000000000004,202.73499999999999h200h200v-103.81399999999996v-103.81400000000002l-101.65800000000002,0.28600000000000136l-101.65800000000002,0.28700000000000614l-17.445999999999998,-17.545999999999992c-9.596000000000004,-9.65100000000001,-21.677999999999997,-21.831999999999994,-26.849999999999994,-27.069999999999993c-17.23799999999997,-17.459000000000003,-100.35699999999997,-101.37800000000001,-133.66799999999998,-134.955l-18.695999999999998,-18.845l-0.012000000000000004,202.736M25.702,0.3040000000000001c0.16799999999999926,0.16700000000000004,3.974,4.043,8.457000000000004,8.612c4.484000000000002,4.568999999999999,22.477000000000004,22.768,39.985,40.441c17.509,17.674000000000007,37.42400000000001,37.82599999999999,44.256,44.782l12.421999999999997,12.649000000000001l62.349999999999994,0.24899999999999523c34.292,0.13599999999999568,87.107,0.27299999999999613,117.36499999999998,0.30400000000000205l55.014999999999986,0.05500000000000682v19.048000000000002v19.04700000000001l-47.11099999999999,0.08400000000000318c-25.91300000000001,0.04599999999999227,-51.76400000000001,0.03700000000000614,-57.447,-0.020999999999986585l-10.334000000000003,-0.10499999999998977l-8.915999999999997,8.782999999999987c-4.903999999999996,4.8300000000000125,-12.792000000000002,12.538000000000011,-17.52799999999999,17.12700000000001c-4.736999999999995,4.590000000000003,-8.611999999999995,8.443000000000012,-8.611999999999995,8.563999999999993c0,0.12000000000000455,41.488999999999976,0.2779999999999916,92.19799999999998,0.3499999999999943l92.19800000000004,0.1309999999999718v-53.661v-53.66l-68.99700000000001,-0.269999999999996c-37.94799999999998,-0.14799999999999613,-95.17000000000002,-0.269999999999996,-127.16,-0.269999999999996h-58.16299999999998l-18.756,-18.778l-18.754999999999995,-18.778l128.352,-0.2809999999999988l128.351,-0.2809999999999988l5.7099999999999795,-5.457999999999998c3.1399999999999864,-3.001999999999999,11.089999999999975,-10.741,17.66500000000002,-17.198l11.95599999999996,-11.739000000000013l-187.40299999999996,-0.015000000000000006c-103.07200000000002,-0.008000000000000004,-187.26600000000002,0.122,-187.098,0.2890000000000001M106.976,148.168c13.492999999999995,13.396999999999991,33.441,33.209,44.328,44.02699999999999l19.79400000000001,19.66900000000001l-0.9490000000000123,1.122000000000014c-0.5219999999999914,0.6169999999999902,-1.4050000000000011,1.6229999999999905,-1.9629999999999939,2.2350000000000136c-0.556999999999988,0.6129999999999995,-1.6879999999999882,1.9170000000000016,-2.51400000000001,2.897999999999996c-0.8249999999999886,0.9809999999999945,-1.9199999999999875,2.242999999999995,-2.4310000000000116,2.805000000000007c-0.5120000000000005,0.561000000000007,-1.6599999999999966,1.9039999999999964,-2.5519999999999925,2.983000000000004c-0.8919999999999959,1.0790000000000077,-1.9099999999999966,2.2649999999999864,-2.2620000000000005,2.6370000000000005c-0.35300000000000864,0.3710000000000093,-1.7019999999999982,1.9370000000000118,-2.9979999999999905,3.4790000000000134c-1.2959999999999923,1.5420000000000016,-3.287000000000006,3.8089999999999975,-4.425000000000011,5.037000000000006c-1.1370000000000005,1.2280000000000086,-2.4939999999999998,2.7779999999999916,-3.0149999999999864,3.444999999999993c-0.5219999999999914,0.6659999999999968,-1.7980000000000018,2.1539999999999964,-2.836999999999989,3.306999999999988s-2.5500000000000114,2.884999999999991,-3.3569999999999993,3.8499999999999943c-0.8079999999999927,0.9650000000000034,-3.2860000000000014,3.852000000000004,-5.507000000000005,6.414999999999992c-2.2210000000000036,2.562999999999988,-4.569999999999993,5.277999999999992,-5.218999999999994,6.03400000000002c-0.6490000000000009,0.7549999999999955,-2.0800000000000125,2.3570000000000277,-3.179000000000002,3.5609999999999786c-1.0999999999999943,1.2029999999999745,-2.2660000000000053,2.5919999999999845,-2.5919999999999987,3.0849999999999795c-0.3269999999999982,0.492999999999995,-0.8119999999999976,1.0790000000000077,-1.0789999999999935,1.302000000000021c-0.2669999999999959,0.2230000000000132,-1.8089999999999975,1.954999999999984,-3.4279999999999973,3.8500000000000227c-4.731999999999999,5.538000000000011,-6.983000000000004,8.113999999999976,-8.096999999999994,9.259999999999991c-0.5739999999999981,0.5910000000000082,-1.527000000000001,1.711999999999989,-2.1189999999999998,2.492999999999995c-0.5919999999999987,0.7799999999999727,-1.777000000000001,2.184000000000026,-2.6340000000000003,3.1200000000000045c-0.8569999999999993,0.9359999999999786,-2.2879999999999967,2.5640000000000214,-3.179000000000002,3.617999999999995c-0.8919999999999959,1.0550000000000068,-1.894999999999996,2.2110000000000127,-2.228999999999999,2.5710000000000264c-0.3340000000000032,0.35899999999998045,-1.2789999999999964,1.4660000000000082,-2.0990000000000038,2.4599999999999795c-0.8199999999999932,0.9940000000000282,-2.155000000000001,2.5369999999999777,-2.9650000000000034,3.4279999999999973c-0.811000000000007,0.8919999999999959,-2.146000000000001,2.4259999999999877,-2.9669999999999987,3.4110000000000014c-0.820999999999998,0.9839999999999804,-1.7660000000000053,2.0810000000000173,-2.100999999999999,2.4390000000000214c-0.3340000000000032,0.3580000000000041,-1.6110000000000042,1.8319999999999936,-2.8370000000000033,3.2760000000000105c-1.225999999999999,1.4449999999999932,-2.337999999999994,2.7180000000000177,-2.4710000000000036,2.829999999999984c-0.13299999999999557,0.11099999999999,-2.7609999999999957,3.1200000000000045,-5.838999999999999,6.687000000000012c-3.0789999999999935,3.565999999999974,-5.807000000000002,6.665999999999997,-6.063000000000002,6.88900000000001s-0.9380000000000024,1.0439999999999827,-1.516999999999996,1.8240000000000123c-0.578000000000003,0.7799999999999727,-1.7289999999999992,2.1480000000000246,-2.557000000000002,3.0389999999999873c-0.828000000000003,0.8919999999999959,-1.7339999999999947,1.947999999999979,-2.013999999999996,2.34699999999998s-1.3119999999999976,1.5840000000000032,-2.293999999999997,2.6340000000000146c-0.9819999999999993,1.0500000000000114,-2.2069999999999936,2.4560000000000173,-2.721999999999994,3.125c-0.5150000000000006,0.6680000000000064,-1.786999999999999,2.1429999999999723,-2.8260000000000005,3.276999999999987c-1.0390000000000015,1.1340000000000146,-2.3429999999999964,2.5930000000000177,-2.8980000000000032,3.242999999999995c-8.168999999999997,9.550999999999988,-10.643999999999998,12.387999999999977,-11.997999999999998,13.74799999999999c-0.6899999999999977,0.6929999999999836,-1.418999999999997,1.5439999999999827,-1.6210000000000022,1.8910000000000196c-0.20199999999999818,0.34600000000000364,-1.3999999999999986,1.7939999999999827,-2.661999999999999,3.2169999999999845c-1.2620000000000005,1.4230000000000018,-2.996000000000002,3.4080000000000155,-3.853999999999999,4.411000000000001s-2.012999999999998,2.355000000000018,-2.567999999999998,3.004000000000019c-1.7319999999999993,2.0249999999999773,-3.7880000000000003,4.369000000000028,-5.315999999999999,6.062000000000012l-1.4690000000000012,1.627999999999986l-0.24500000000003297,-96.43100000000004c-0.13500000000000156,-53.037000000000006,-0.34199999999999875,-121.93099999999998,-0.46000000000000085,-153.097l-0.21399999999999864,-56.667l27.243,27.081999999999994c14.983000000000004,14.894999999999996,38.283,38.04299999999998,51.777,51.44M370.821,265.553v39.81700000000001l-102.476,-0.1309999999999718l-102.476,-0.12999999999999545l-1.367999999999995,1.7509999999999764c-0.7529999999999859,0.9639999999999986,-1.554000000000002,1.9510000000000218,-1.7800000000000011,2.194999999999993c-0.9120000000000061,0.9820000000000277,-4.825999999999993,5.4979999999999905,-8.694999999999993,10.031999999999982c-2.2530000000000143,2.6399999999999864,-4.319999999999993,5.033999999999992,-4.592999999999989,5.317999999999984c-0.27299999999999613,0.285000000000025,-1.225999999999999,1.3940000000000055,-2.117999999999995,2.464999999999975c-0.8909999999999911,1.0710000000000264,-2.076999999999998,2.4610000000000127,-2.6340000000000146,3.0889999999999986c-0.556999999999988,0.6279999999999859,-1.6519999999999868,1.8969999999999914,-2.431999999999988,2.819000000000017c-0.7800000000000011,0.9230000000000018,-1.782999999999987,2.0880000000000223,-2.2290000000000134,2.5889999999999986s-1.539999999999992,1.785000000000025,-2.4310000000000116,2.853999999999985c-0.8919999999999959,1.0679999999999836,-1.8060000000000116,2.13900000000001,-2.0320000000000107,2.377999999999986c-0.2259999999999991,0.2389999999999759,-2.1330000000000098,2.440999999999974,-4.2379999999999995,4.891999999999996c-2.1059999999999945,2.451999999999998,-4.337000000000003,4.961000000000013,-4.959999999999994,5.576000000000022c-0.6219999999999999,0.6150000000000091,-1.1340000000000003,1.254000000000019,-1.1380000000000052,1.4189999999999827c-0.0040000000000048885,0.16500000000002046,-0.7980000000000018,1.1429999999999723,-1.7639999999999958,2.173999999999978c-0.9669999999999987,1.0299999999999727,-2.034000000000006,2.2660000000000196,-2.3700000000000045,2.747000000000014c-0.3370000000000033,0.48099999999999454,-1.4120000000000061,1.7200000000000273,-2.3900000000000006,2.754000000000019c-0.9770000000000039,1.0339999999999918,-2.051000000000002,2.276999999999987,-2.385000000000005,2.761000000000024c-0.5139999999999958,0.7450000000000045,-3.4890000000000043,4.235000000000014,-5.674000000000007,6.656000000000006c-1.3379999999999939,1.4839999999999804,-3.5190000000000055,4.021000000000015,-4.834000000000003,5.625999999999976l-1.3889999999999958,1.6960000000000264h-18.599000000000004c-15.735,0,-18.516999999999996,-0.08600000000001273,-18.063999999999993,-0.5550000000000068c0.9839999999999947,-1.0190000000000055,4.176000000000002,-4.836000000000013,4.760000000000005,-5.692000000000007c0.31799999999999784,-0.464999999999975,1.230000000000004,-1.6000000000000227,2.027000000000001,-2.5219999999999914c1.5600000000000023,-1.8050000000000068,2.269999999999996,-2.6440000000000055,9.543999999999997,-11.291999999999973c2.625,-3.120999999999981,5.054000000000002,-5.899000000000001,5.397999999999996,-6.173999999999978c0.34499999999999886,-0.27499999999997726,0.9140000000000015,-0.9340000000000259,1.266999999999996,-1.4630000000000223c0.605000000000004,-0.910000000000025,2.8689999999999998,-3.6000000000000227,6.162000000000006,-7.319999999999993c0.8080000000000069,-0.9119999999999777,1.902000000000001,-2.180999999999983,2.4309999999999974,-2.819999999999993c0.972999999999999,-1.1720000000000255,3.168999999999997,-3.7099999999999795,7.2450000000000045,-8.372000000000014c1.225999999999999,-1.40300000000002,2.5930000000000035,-3.0330000000000155,3.0390000000000015,-3.625c0.44599999999999795,-0.5910000000000082,1.480000000000004,-1.7930000000000064,2.296999999999997,-2.6709999999999923c0.8179999999999978,-0.8790000000000191,1.9120000000000061,-2.1429999999999723,2.432000000000002,-2.809000000000026s1.2180000000000035,-1.5009999999999764,1.5529999999999973,-1.853999999999985c2.1599999999999966,-2.2819999999999823,3.9339999999999975,-4.295000000000016,4.457999999999998,-5.060999999999979c0.3340000000000032,-0.4889999999999759,1.4279999999999973,-1.7989999999999782,2.4309999999999974,-2.913000000000011c1.0030000000000001,-1.1129999999999995,2.5450000000000017,-2.882000000000005,3.426000000000002,-3.930999999999983c0.8799999999999955,-1.0480000000000018,1.9749999999999943,-2.333000000000027,2.4310000000000116,-2.853999999999985c0.45699999999999363,-0.5199999999999818,1.5060000000000002,-1.7479999999999905,2.330999999999989,-2.7280000000000086c0.8259999999999934,-0.9800000000000182,1.9199999999999875,-2.238999999999976,2.431999999999988,-2.798999999999978c0.5120000000000005,-0.5590000000000259,1.5349999999999966,-1.7660000000000196,2.272999999999996,-2.680000000000007c0.7390000000000043,-0.9150000000000205,1.8329999999999984,-2.180000000000007,2.431999999999988,-2.8109999999999786c0.5989999999999895,-0.632000000000005,1.818000000000012,-2.0600000000000023,2.710000000000008,-3.173999999999978c0.8909999999999911,-1.115000000000009,1.8189999999999884,-2.209000000000003,2.062000000000012,-2.430999999999983c0.242999999999995,-0.2230000000000132,2.0500000000000114,-2.3210000000000264,4.016999999999996,-4.661000000000001c1.9660000000000082,-2.339999999999975,3.8499999999999943,-4.480000000000018,4.187000000000012,-4.755999999999972c0.33600000000001273,-0.27499999999997726,0.8990000000000009,-0.9340000000000259,1.2510000000000048,-1.4639999999999986c0.5980000000000132,-0.8990000000000009,2.1059999999999945,-2.673999999999978,7.125,-8.387c4.513000000000005,-5.134999999999991,6.442000000000007,-7.372000000000014,7.252999999999986,-8.408000000000015c0.4689999999999941,-0.6000000000000227,1.1260000000000048,-1.3759999999999764,1.460000000000008,-1.7250000000000227c0.33500000000000796,-0.34899999999998954,1.3379999999999939,-1.51400000000001,2.2290000000000134,-2.5880000000000223c0.8919999999999959,-1.0749999999999886,1.8129999999999882,-2.158999999999992,2.046999999999997,-2.408999999999992c0.23500000000001364,-0.2510000000000048,3.7709999999999866,-4.3770000000000095,7.860000000000014,-9.169000000000011c4.087999999999994,-4.792000000000002,7.634999999999991,-8.89500000000001,7.882000000000005,-9.117999999999995s1.1169999999999902,-1.225999999999999,1.9339999999999975,-2.2290000000000134c0.8170000000000073,-1.002999999999986,2.002999999999986,-2.401999999999987,2.6340000000000146,-3.108000000000004c0.632000000000005,-0.7059999999999889,1.7160000000000082,-1.98599999999999,2.408999999999992,-2.8429999999999893l1.259999999999991,-1.5589999999999975l87.19,-0.09499999999999886l87.19,-0.09499999999999886v39.81799999999993"/>
	<path id="path4" fill="#AAC2CE" d="M37.277,79.129c3.946,4.046,4.466,4.54,4.466,4.248c0-0.06-1.961-2.02-4.357-4.357l-4.357-4.248   L37.277,79.129 M28.141,97.872c0,6.019,0.056,8.537,0.125,5.597c0.069-2.94,0.07-7.864,0.001-10.942   C28.198,89.449,28.141,91.854,28.141,97.872 M86.93,128.47c1.548,1.56,2.906,2.837,3.018,2.837c0.111,0-1.064-1.277-2.613-2.837   c-1.548-1.56-2.906-2.837-3.017-2.837C84.206,125.633,85.382,126.91,86.93,128.47 M92.806,134.347   c0.757,0.78,1.466,1.418,1.578,1.418c0.111,0-0.416-0.638-1.172-1.418c-0.756-0.781-1.466-1.419-1.578-1.419   C91.523,132.928,92.05,133.566,92.806,134.347 M96.859,138.323c0,0.07,0.593,0.663,1.317,1.317l1.317,1.191l-1.19-1.317   C97.194,138.286,96.859,138.01,96.859,138.323 M266.981,145.789c0.954,0.085,2.413,0.084,3.242-0.003   c0.83-0.087,0.051-0.157-1.733-0.156C266.707,145.632,266.028,145.703,266.981,145.789 M133.333,174.468   c0.756,0.78,1.466,1.419,1.578,1.419c0.111,0-0.416-0.639-1.172-1.419c-0.757-0.78-1.466-1.418-1.578-1.418   C132.05,173.05,132.577,173.688,133.333,174.468 M140.611,181.662c0.994,1.058,1.86,1.925,1.925,1.925   c0.305,0-0.017-0.364-1.807-2.044l-1.925-1.806L140.611,181.662 M202.33,198.074c3.288,0.068,8.668,0.068,11.956,0   c3.287-0.068,0.597-0.124-5.978-0.124C201.733,197.95,199.043,198.006,202.33,198.074 M262.737,198.074   c2.409,0.071,6.238,0.071,8.511-0.001c2.273-0.072,0.302-0.131-4.379-0.13C262.188,197.943,260.329,198.002,262.737,198.074    M159.473,200.608c1.098,1.114,2.087,2.026,2.199,2.026c0.111,0-0.696-0.912-1.794-2.026c-1.097-1.115-2.087-2.026-2.198-2.026   C157.568,198.582,158.375,199.493,159.473,200.608 M196.415,226.039c-0.171,0.276,14.262,0.27,31.346-0.012   c3.678-0.061-1.828-0.152-12.236-0.202C205.118,225.775,196.518,225.871,196.415,226.039 M298.987,226.038   c13.208,0.06,34.817,0.06,48.024,0c13.207-0.059,2.401-0.107-24.012-0.107S285.78,225.979,298.987,226.038 M28.546,268.896   c0,6.018,0.056,8.536,0.126,5.596c0.069-2.94,0.069-7.864,0-10.942C28.603,260.472,28.546,262.877,28.546,268.896 M358.381,305.47   c2.408,0.072,6.238,0.071,8.51-0.001c2.273-0.072,0.304-0.131-4.378-0.13C357.832,305.339,355.972,305.398,358.381,305.47"/>
</g>
</svg>