<?xml version="1.0" encoding="utf-8"?>
<!-- Generator: Adobe Illustrator 23.0.1, SVG Export Plug-In . SVG Version: 6.00 Build 0)  -->
<svg version="1.1" xmlns="http://www.w3.org/2000/svg" xmlns:xlink="http://www.w3.org/1999/xlink" x="0px" y="0px"
	 viewBox="0 0 1024 1024" style="enable-background:new 0 0 1024 1024;" xml:space="preserve">
<style type="text/css">
	.st0{fill:#FFFFFF;stroke:#FFFFFF;stroke-width:30;stroke-miterlimit:10;}
	.st1{fill:#D3E9E5;}
	.st2{fill:#D8F7F3;}
	.st3{fill:#90C8BF;}
	.st4{fill:#9EEBE1;}
	.st5{fill:#4EA899;}
	.st6{fill:#65DFCF;}
	.st7{fill:#2E635A;}
</style>
<g id="Layer_2">
</g>
<g id="Layer_1">
	<polygon class="st0" points="883.2,454.9 410.1,933.2 69,592.1 548.8,112.2 888.3,111.3 	"/>
	<polygon class="st1" points="487.9,855.4 487.7,530.8 889.7,128.8 883.2,454.9 	"/>
	<polygon class="st2" points="149.8,511.3 472.4,507.1 869,110.6 548.8,112.2 	"/>
	<polygon class="st3" points="439,904.9 436.5,582 793.2,225.3 786.7,552.7 	"/>
	<polygon class="st4" points="95.8,565.3 418.4,561.1 769.4,210.2 449.2,211.9 	"/>
	<polygon class="st5" points="439,904 436.5,582 692.8,325.7 686.2,654.4 	"/>
	<polygon class="st6" points="94.4,566.6 417.1,562.5 667.8,311.8 347.6,313.5 	"/>
	<polygon class="st7" points="409.7,590.4 411.4,932.1 69,592.1 	"/>
</g>
</svg>
