<?xml version="1.0" encoding="utf-8"?>
<!-- Generator: Adobe Illustrator 16.0.0, SVG Export Plug-In . SVG Version: 6.00 Build 0)  -->
<!DOCTYPE svg PUBLIC "-//W3C//DTD SVG 1.1//EN" "http://www.w3.org/Graphics/SVG/1.1/DTD/svg11.dtd">
<svg version="1.1" id="svg" xmlns="http://www.w3.org/2000/svg" xmlns:xlink="http://www.w3.org/1999/xlink" x="0px" y="0px"
	 width="400px" height="405.268px" viewBox="0 0 400 405.268" enable-background="new 0 0 400 405.268" xml:space="preserve">
<g id="svgg">
	<path id="path0" fill="#D8D8D8" d="M28.136,78.622c0,4.792,0.058,6.753,0.13,4.357c0.072-2.396,0.072-6.317,0-8.714
		C28.194,71.869,28.136,73.83,28.136,78.622 M94.428,135.892c0,0.07,0.592,0.662,1.317,1.317l1.317,1.19l-1.191-1.317
		C94.762,135.854,94.428,135.579,94.428,135.892 M245.317,180.243c5.309,0.064,13.88,0.064,19.047,0
		c5.167-0.064,0.823-0.117-9.653-0.117S240.007,180.179,245.317,180.243 M28.546,247.416c0,6.019,0.056,8.537,0.126,5.597
		c0.069-2.94,0.069-7.864,0-10.942C28.603,238.993,28.546,241.398,28.546,247.416 M71.429,376.797c2.173,0.072,5.729,0.072,7.902,0
		c2.174-0.073,0.395-0.133-3.951-0.133C71.033,376.664,69.255,376.724,71.429,376.797 M100.811,376.788
		c0.724,0.089,1.909,0.089,2.634,0c0.724-0.09,0.131-0.164-1.317-0.164C100.679,376.624,100.086,376.698,100.811,376.788"/>
	<path id="path1" fill="#FFFFFF" d="M229.686,198.075c5.182,0.064,13.663,0.064,18.845,0c5.182-0.065,0.942-0.117-9.423-0.117
		C228.744,197.958,224.504,198.01,229.686,198.075 M87.256,376.797c2.408,0.072,6.238,0.072,8.511-0.001
		c2.272-0.072,0.302-0.13-4.379-0.13C86.707,376.666,84.848,376.725,87.256,376.797"/>
	<path id="path2" fill="#408080" d="M36.474,11.474c0,0.07,0.593,0.663,1.317,1.317l1.317,1.191l-1.19-1.317
		C36.809,11.437,36.474,11.161,36.474,11.474 M387.209,12.665l-1.191,1.317l1.317-1.191c1.228-1.109,1.504-1.443,1.191-1.443
		C388.456,11.348,387.863,11.94,387.209,12.665 M368.971,30.496l-1.189,1.318l1.316-1.191c0.726-0.654,1.317-1.247,1.317-1.317
		C370.415,28.993,370.081,29.269,368.971,30.496 M38.095,38.298c0.756,0.78,1.466,1.418,1.578,1.418
		c0.111,0-0.416-0.638-1.172-1.418c-0.757-0.78-1.466-1.419-1.578-1.419C36.812,36.879,37.339,37.518,38.095,38.298 M80.446,81.054
		c0.87,0.891,1.674,1.621,1.785,1.621c0.112,0-0.509-0.73-1.38-1.621c-0.871-0.892-1.674-1.621-1.786-1.621
		C78.954,79.433,79.575,80.162,80.446,81.054 M218.541,107.294c4.179,0.066,11.018,0.066,15.198,0
		c4.179-0.066,0.759-0.119-7.599-0.119C217.781,107.175,214.362,107.228,218.541,107.294 M365.3,111.854
		c0,2.563,0.066,3.612,0.146,2.33c0.081-1.281,0.081-3.379,0-4.66C365.366,108.242,365.3,109.291,365.3,111.854 M122.374,123.303
		c0.994,1.059,1.86,1.925,1.925,1.925c0.304,0-0.017-0.364-1.807-2.043l-1.925-1.807L122.374,123.303 M164.927,166.261
		c1.68,1.79,2.044,2.111,2.044,1.807c0-0.065-0.867-0.931-1.925-1.925l-1.925-1.807L164.927,166.261"/>
	<path id="path3" fill="#6396A9" d="M0.012,202.533L0,405.268h200h200V301.454V197.64l-101.658,0.286l-101.658,0.287l-17.446-17.546
		c-9.596-9.651-21.678-21.832-26.85-27.07C135.15,136.138,52.031,52.219,18.72,18.642L0.024-0.203L0.012,202.533 M25.702,0.304
		c0.168,0.167,3.974,4.043,8.457,8.612c4.484,4.569,22.477,22.768,39.985,40.441c17.509,17.674,37.424,37.826,44.256,44.782
		l12.422,12.649l62.35,0.249c34.292,0.136,87.107,0.273,117.365,0.304l55.015,0.055v19.048v19.047l-47.111,0.084
		c-25.913,0.046-51.764,0.037-57.447-0.021l-10.334-0.105l-8.916,8.783c-4.904,4.83-12.792,12.538-17.528,17.127
		c-4.737,4.59-8.612,8.443-8.612,8.564c0,0.12,41.489,0.278,92.198,0.35L400,180.404v-53.661v-53.66l-68.997-0.27
		c-37.948-0.148-95.17-0.27-127.16-0.27H145.68l-18.756-18.778l-18.755-18.778l128.352-0.281l128.351-0.281l5.71-5.458
		c3.14-3.002,11.09-10.741,17.665-17.198L400.203,0.03L212.8,0.015C109.728,0.007,25.534,0.137,25.702,0.304 M106.976,148.168
		c13.493,13.397,33.441,33.209,44.328,44.027l19.794,19.669l-0.949,1.122c-0.522,0.617-1.405,1.623-1.963,2.235
		c-0.557,0.613-1.688,1.917-2.514,2.898c-0.825,0.981-1.92,2.243-2.431,2.805c-0.512,0.561-1.66,1.904-2.552,2.983
		c-0.892,1.079-1.91,2.265-2.262,2.637c-0.353,0.371-1.702,1.937-2.998,3.479c-1.296,1.542-3.287,3.809-4.425,5.037
		c-1.137,1.228-2.494,2.778-3.015,3.445c-0.522,0.666-1.798,2.154-2.837,3.307s-2.55,2.885-3.357,3.85
		c-0.808,0.965-3.286,3.852-5.507,6.415c-2.221,2.563-4.57,5.278-5.219,6.034c-0.649,0.755-2.08,2.357-3.179,3.561
		c-1.1,1.203-2.266,2.592-2.592,3.085c-0.327,0.493-0.812,1.079-1.079,1.302c-0.267,0.223-1.809,1.955-3.428,3.85
		c-4.732,5.538-6.983,8.114-8.097,9.26c-0.574,0.591-1.527,1.712-2.119,2.493c-0.592,0.78-1.777,2.184-2.634,3.12
		c-0.857,0.936-2.288,2.564-3.179,3.618c-0.892,1.055-1.895,2.211-2.229,2.571c-0.334,0.359-1.279,1.466-2.099,2.46
		c-0.82,0.994-2.155,2.537-2.965,3.428c-0.811,0.892-2.146,2.426-2.967,3.411c-0.821,0.984-1.766,2.081-2.101,2.439
		c-0.334,0.358-1.611,1.832-2.837,3.276c-1.226,1.445-2.338,2.718-2.471,2.83c-0.133,0.111-2.761,3.12-5.839,6.687
		c-3.079,3.566-5.807,6.666-6.063,6.889s-0.938,1.044-1.517,1.824c-0.578,0.78-1.729,2.148-2.557,3.039
		c-0.828,0.892-1.734,1.948-2.014,2.347s-1.312,1.584-2.294,2.634c-0.982,1.05-2.207,2.456-2.722,3.125
		c-0.515,0.668-1.787,2.143-2.826,3.277c-1.039,1.134-2.343,2.593-2.898,3.243c-8.169,9.551-10.644,12.388-11.998,13.748
		c-0.69,0.693-1.419,1.544-1.621,1.891c-0.202,0.346-1.4,1.794-2.662,3.217c-1.262,1.423-2.996,3.408-3.854,4.411
		s-2.013,2.355-2.568,3.004c-1.732,2.025-3.788,4.369-5.316,6.062l-1.469,1.628L28.63,279.41
		c-0.135-53.037-0.342-121.931-0.46-153.097l-0.214-56.667l27.243,27.082C70.182,111.623,93.482,134.771,106.976,148.168
		 M370.821,265.553v39.817l-102.476-0.131l-102.476-0.13l-1.368,1.751c-0.753,0.964-1.554,1.951-1.78,2.195
		c-0.912,0.982-4.826,5.498-8.695,10.032c-2.253,2.64-4.32,5.034-4.593,5.318c-0.273,0.285-1.226,1.394-2.118,2.465
		c-0.891,1.071-2.077,2.461-2.634,3.089c-0.557,0.628-1.652,1.897-2.432,2.819c-0.78,0.923-1.783,2.088-2.229,2.589
		s-1.54,1.785-2.431,2.854c-0.892,1.068-1.806,2.139-2.032,2.378c-0.226,0.239-2.133,2.441-4.238,4.892
		c-2.106,2.452-4.337,4.961-4.96,5.576c-0.622,0.615-1.134,1.254-1.138,1.419c-0.004,0.165-0.798,1.143-1.764,2.174
		c-0.967,1.03-2.034,2.266-2.37,2.747c-0.337,0.481-1.412,1.72-2.39,2.754c-0.977,1.034-2.051,2.277-2.385,2.761
		c-0.514,0.745-3.489,4.235-5.674,6.656c-1.338,1.484-3.519,4.021-4.834,5.626l-1.389,1.696H85.816
		c-15.735,0-18.517-0.086-18.064-0.555c0.984-1.019,4.176-4.836,4.76-5.692c0.318-0.465,1.23-1.6,2.027-2.522
		c1.56-1.805,2.27-2.644,9.544-11.292c2.625-3.121,5.054-5.899,5.398-6.174c0.345-0.275,0.914-0.934,1.267-1.463
		c0.605-0.91,2.869-3.6,6.162-7.32c0.808-0.912,1.902-2.181,2.431-2.82c0.973-1.172,3.169-3.71,7.245-8.372
		c1.226-1.403,2.593-3.033,3.039-3.625c0.446-0.591,1.48-1.793,2.297-2.671c0.818-0.879,1.912-2.143,2.432-2.809
		s1.218-1.501,1.553-1.854c2.16-2.282,3.934-4.295,4.458-5.061c0.334-0.489,1.428-1.799,2.431-2.913
		c1.003-1.113,2.545-2.882,3.426-3.931c0.88-1.048,1.975-2.333,2.431-2.854c0.457-0.52,1.506-1.748,2.331-2.728
		c0.826-0.98,1.92-2.239,2.432-2.799c0.512-0.559,1.535-1.766,2.273-2.68c0.739-0.915,1.833-2.18,2.432-2.811
		c0.599-0.632,1.818-2.06,2.71-3.174c0.891-1.115,1.819-2.209,2.062-2.431c0.243-0.223,2.05-2.321,4.017-4.661
		c1.966-2.34,3.85-4.48,4.187-4.756c0.336-0.275,0.899-0.934,1.251-1.464c0.598-0.899,2.106-2.674,7.125-8.387
		c4.513-5.135,6.442-7.372,7.253-8.408c0.469-0.6,1.126-1.376,1.46-1.725c0.335-0.349,1.338-1.514,2.229-2.588
		c0.892-1.075,1.813-2.159,2.047-2.409c0.235-0.251,3.771-4.377,7.86-9.169c4.088-4.792,7.635-8.895,7.882-9.118
		s1.117-1.226,1.934-2.229c0.817-1.003,2.003-2.402,2.634-3.108c0.632-0.706,1.716-1.986,2.409-2.843l1.26-1.559l87.19-0.095
		l87.19-0.095V265.553"/>
	<path id="path4" fill="#AAC2CE" d="M37.277,79.129c3.946,4.046,4.466,4.54,4.466,4.248c0-0.06-1.961-2.02-4.357-4.357l-4.357-4.248
		L37.277,79.129 M28.141,97.872c0,6.019,0.056,8.537,0.125,5.597c0.069-2.94,0.07-7.864,0.001-10.942
		C28.198,89.449,28.141,91.854,28.141,97.872 M86.93,128.47c1.548,1.56,2.906,2.837,3.018,2.837c0.111,0-1.064-1.277-2.613-2.837
		c-1.548-1.56-2.906-2.837-3.017-2.837C84.206,125.633,85.382,126.91,86.93,128.47 M92.806,134.347
		c0.757,0.78,1.466,1.418,1.578,1.418c0.111,0-0.416-0.638-1.172-1.418c-0.756-0.781-1.466-1.419-1.578-1.419
		C91.523,132.928,92.05,133.566,92.806,134.347 M96.859,138.323c0,0.07,0.593,0.663,1.317,1.317l1.317,1.191l-1.19-1.317
		C97.194,138.286,96.859,138.01,96.859,138.323 M266.981,145.789c0.954,0.085,2.413,0.084,3.242-0.003
		c0.83-0.087,0.051-0.157-1.733-0.156C266.707,145.632,266.028,145.703,266.981,145.789 M133.333,174.468
		c0.756,0.78,1.466,1.419,1.578,1.419c0.111,0-0.416-0.639-1.172-1.419c-0.757-0.78-1.466-1.418-1.578-1.418
		C132.05,173.05,132.577,173.688,133.333,174.468 M140.611,181.662c0.994,1.058,1.86,1.925,1.925,1.925
		c0.305,0-0.017-0.364-1.807-2.044l-1.925-1.806L140.611,181.662 M202.33,198.074c3.288,0.068,8.668,0.068,11.956,0
		c3.287-0.068,0.597-0.124-5.978-0.124C201.733,197.95,199.043,198.006,202.33,198.074 M262.737,198.074
		c2.409,0.071,6.238,0.071,8.511-0.001c2.273-0.072,0.302-0.131-4.379-0.13C262.188,197.943,260.329,198.002,262.737,198.074
		 M159.473,200.608c1.098,1.114,2.087,2.026,2.199,2.026c0.111,0-0.696-0.912-1.794-2.026c-1.097-1.115-2.087-2.026-2.198-2.026
		C157.568,198.582,158.375,199.493,159.473,200.608 M196.415,226.039c-0.171,0.276,14.262,0.27,31.346-0.012
		c3.678-0.061-1.828-0.152-12.236-0.202C205.118,225.775,196.518,225.871,196.415,226.039 M298.987,226.038
		c13.208,0.06,34.817,0.06,48.024,0c13.207-0.059,2.401-0.107-24.012-0.107S285.78,225.979,298.987,226.038 M28.546,268.896
		c0,6.018,0.056,8.536,0.126,5.596c0.069-2.94,0.069-7.864,0-10.942C28.603,260.472,28.546,262.877,28.546,268.896 M358.381,305.47
		c2.408,0.072,6.238,0.071,8.51-0.001c2.273-0.072,0.304-0.131-4.378-0.13C357.832,305.339,355.972,305.398,358.381,305.47"/>
</g>
</svg>
