<?xml version="1.0" encoding="utf-8"?>
<!-- Generator: Adobe Illustrator 16.0.0, SVG Export Plug-In . SVG Version: 6.00 Build 0)  -->
<!DOCTYPE svg PUBLIC "-//W3C//DTD SVG 1.1//EN" "http://www.w3.org/Graphics/SVG/1.1/DTD/svg11.dtd">
<svg version="1.1" id="svg" xmlns="http://www.w3.org/2000/svg" xmlns:xlink="http://www.w3.org/1999/xlink" x="0px" y="0px"
	 width="400px" height="400.447px" viewBox="0 0 400 400.447" enable-background="new 0 0 400 400.447" xml:space="preserve">
<g id="svgg">
	<path id="path0" fill="#040707" d="M0,200.223v200.224h200h200V200.223V0H200H0V200.223 M368.715,200.223v168.492H200.223H31.732
		V200.223V31.732h168.491h168.492V200.223 M50.95,200.223v149.274h149.273h149.274V200.223V50.95H200.223H50.95V200.223
		 M338.66,200.112l-0.113,138.435l-138.435,0.113l-138.436,0.112V200.224V61.676h138.548h138.548L338.66,200.112"/>
	<path id="path1" fill="#233231" d="M368.489,200.223c0,92.794,0.052,130.755,0.113,84.358c0.063-46.397,0.063-122.318,0-168.715
		C368.541,69.469,368.489,107.43,368.489,200.223 M338.545,200c0,76.201,0.051,107.308,0.114,69.126
		c0.062-38.182,0.062-100.528,0-138.548C338.596,92.559,338.545,123.799,338.545,200"/>
	<path id="path2" fill="#385B59" d="M50.71,51.061c-0.117,0.308-0.161,67.632-0.097,149.609l0.115,149.051l0.111-149.385
		L50.95,50.951l149.385-0.113l149.386-0.113l-149.4-0.111C81.131,50.525,50.879,50.616,50.71,51.061 M131.061,338.659
		c38.04,0.063,100.285,0.063,138.324,0c38.04-0.063,6.917-0.114-69.162-0.114C124.145,338.545,93.022,338.596,131.061,338.659
		 M115.902,368.603c46.417,0.063,122.238,0.063,168.492,0c46.254-0.062,8.276-0.114-84.394-0.114S69.486,368.541,115.902,368.603"/>
	<path id="path3" fill="#4A8A8A" d="M31.939,32.291c-0.117,0.307-0.161,76.078-0.097,168.379l0.114,167.822l0.112-168.156
		L32.179,32.18l168.156-0.113l168.157-0.113l-168.171-0.111C66.114,31.754,32.108,31.845,31.939,32.291 M61.883,62.235
		c-0.117,0.307-0.161,62.603-0.097,138.435l0.115,137.877l0.111-138.211l0.111-138.212l138.212-0.113l138.212-0.113l-138.226-0.111
		C90.069,61.698,62.052,61.789,61.883,62.235 M125.288,349.832c41.254,0.063,108.629,0.063,149.72,0
		c41.092-0.063,7.338-0.114-75.008-0.114S84.033,349.77,125.288,349.832"/>
	<path id="path4" fill="#54C4C9" d="M32.179,200.223v168.045h168.044h168.044V200.223V32.179H200.223H32.179V200.223
		 M349.497,200.223v149.721H200H50.503V200.223V50.503H200h149.497V200.223 M62.123,200.223v138.101h138.1h138.101V200.223v-138.1
		H200.223h-138.1V200.223"/>
</g>
</svg>
