<svg id="svg" version="1.1" width="895" height="896" xmlns="http://www.w3.org/2000/svg" xmlns:xlink="http://www.w3.org/1999/xlink" style="display: block;"><g id="svgg"><path id="path0" d="" stroke="none" fill="#1f1211" fill-rule="evenodd"></path><path id="path1" d="" stroke="none" fill="#2d1b16" fill-rule="evenodd"></path><path id="path2" d="M368.489 200.223 C 368.489 292.771,368.541 330.631,368.603 284.358 C 368.666 238.084,368.666 162.363,368.603 116.089 C 368.541 69.816,368.489 107.676,368.489 200.223 M338.545 200.223 C 338.545 276.302,338.596 307.425,338.659 269.385 C 338.722 231.346,338.722 169.101,338.659 131.061 C 338.596 93.022,338.545 124.145,338.545 200.223 " stroke="none" fill="#3a201a" fill-rule="evenodd"></path><path id="path3" d="" stroke="none" fill="#51271f" fill-rule="evenodd"></path><path id="path4" d="M50.710 51.061 C 50.593 51.369,50.549 118.693,50.613 200.670 L 50.728 349.721 50.839 200.336 L 50.950 50.951 200.335 50.838 L 349.721 50.725 200.321 50.614 C 81.131 50.525,50.879 50.616,50.710 51.061 M131.061 338.659 C 169.101 338.722,231.346 338.722,269.385 338.659 C 307.425 338.596,276.302 338.545,200.223 338.545 C 124.145 338.545,93.022 338.596,131.061 338.659 M116.089 368.603 C 162.363 368.666,238.084 368.666,284.358 368.603 C 330.631 368.541,292.771 368.489,200.223 368.489 C 107.676 368.489,69.816 368.541,116.089 368.603 " stroke="none" fill="#6a2d23" fill-rule="evenodd"></path><path id="path5" d="" stroke="none" fill="#772e24" fill-rule="evenodd"></path><path id="path6" d="M31.939 32.291 C 31.822 32.598,31.778 108.369,31.842 200.670 L 31.956 368.492 32.068 200.336 L 32.179 32.180 200.335 32.067 L 368.492 31.954 200.321 31.843 C 66.114 31.754,32.108 31.845,31.939 32.291 M61.883 62.235 C 61.766 62.542,61.722 124.838,61.786 200.670 L 61.901 338.547 62.012 200.336 L 62.123 62.124 200.335 62.011 L 338.547 61.898 200.321 61.787 C 90.069 61.698,62.052 61.789,61.883 62.235 M125.475 349.832 C 166.587 349.895,233.860 349.895,274.972 349.832 C 316.084 349.769,282.447 349.718,200.223 349.718 C 118.000 349.718,84.363 349.769,125.475 349.832 " stroke="none" fill="#a42e27" fill-rule="evenodd"></path><path id="path7" d="" stroke="none" fill="#c62a27" fill-rule="evenodd"></path><path id="path8" d="M32.179 200.223 L 32.179 368.268 200.223 368.268 L 368.268 368.268 368.268 200.223 L 368.268 32.179 200.223 32.179 L 32.179 32.179 32.179 200.223 M349.497 200.223 L 349.497 349.944 200.000 349.944 L 50.503 349.944 50.503 200.223 L 50.503 50.503 200.000 50.503 L 349.497 50.503 349.497 200.223 M62.123 200.223 L 62.123 338.324 200.223 338.324 L 338.324 338.324 338.324 200.223 L 338.324 62.123 200.223 62.123 L 62.123 62.123 62.123 200.223 " stroke="none" fill="#ed1d24" fill-rule="evenodd"></path><path id="path9" d="M0.000 200.223 L 0.000 400.447 200.000 400.447 L 400.000 400.447 400.000 200.223 L 400.000 0.000 200.000 0.000 L 0.000 0.000 0.000 200.223 M368.715 200.223 L 368.715 368.715 200.223 368.715 L 31.732 368.715 31.732 200.223 L 31.732 31.732 200.223 31.732 L 368.715 31.732 368.715 200.223 M50.950 200.223 L 50.950 349.497 200.223 349.497 L 349.497 349.497 349.497 200.223 L 349.497 50.950 200.223 50.950 L 50.950 50.950 50.950 200.223 M338.771 200.223 L 338.771 338.771 200.223 338.771 L 61.676 338.771 61.676 200.223 L 61.676 61.676 200.223 61.676 L 338.771 61.676 338.771 200.223 " stroke="none" fill="#040707" fill-rule="evenodd"></path></g></svg>