<svg id="svg" version="1.1" width="895" height="895" xmlns="http://www.w3.org/2000/svg" xmlns:xlink="http://www.w3.org/1999/xlink" style="display: block;"><g id="svgg"><path id="path0" d="M185.028 0.265 C 184.168 0.360,181.251 0.660,178.547 0.932 C 90.133 9.808,16.615 79.219,2.492 167.151 C -1.821 194.004,-0.640 223.180,5.804 248.939 C 24.506 323.696,85.369 381.632,160.739 396.424 C 185.040 401.193,214.294 401.271,238.263 396.630 C 318.350 381.122,381.122 318.350,396.630 238.263 C 401.271 214.294,401.193 185.040,396.424 160.739 C 380.803 81.144,316.892 17.936,237.095 3.161 C 223.756 0.691,195.405 -0.886,185.028 0.265 M208.939 34.415 C 333.603 41.572,406.519 178.504,342.450 285.140 C 279.465 389.970,128.621 393.209,61.456 291.173 C -8.411 185.033,63.283 41.709,189.874 34.449 C 198.796 33.937,200.559 33.934,208.939 34.415 M190.591 53.183 C 64.372 61.944,6.874 214.953,96.283 304.149 C 179.222 386.892,321.454 343.574,344.338 228.603 C 363.105 134.321,286.177 46.549,190.591 53.183 M218.994 65.460 C 330.403 83.164,375.117 216.976,296.047 296.047 C 212.024 380.070,67.168 322.220,64.486 203.571 C 62.873 132.147,115.026 72.564,185.922 64.837 C 191.976 64.178,213.469 64.582,218.994 65.460 " stroke="none" fill="#040707" fill-rule="evenodd"></path><path id="path1" d="M189.874 34.449 C 90.414 40.153,18.164 133.368,37.134 231.508 C 59.999 349.799,198.270 405.066,296.328 335.109 C 403.444 258.691,382.766 93.259,260.112 45.360 C 237.961 36.710,214.364 33.044,189.874 34.449 M216.760 53.901 C 328.230 66.430,385.088 195.953,318.931 286.648 C 253.881 375.825,116.357 363.868,67.945 264.826 C 16.998 160.598,101.423 40.937,216.760 53.901 M185.922 64.837 C 91.045 75.177,35.759 177.326,79.201 262.022 C 123.884 349.140,244.440 361.555,305.678 285.345 C 371.798 203.059,324.140 82.169,218.994 65.460 C 213.469 64.582,191.976 64.178,185.922 64.837 " stroke="none" fill="#ed1d24" fill-rule="evenodd"></path></g></svg>