<?xml version="1.0" encoding="utf-8"?>
<!-- Generator: Adobe Illustrator 16.0.0, SVG Export Plug-In . SVG Version: 6.00 Build 0)  -->
<!DOCTYPE svg PUBLIC "-//W3C//DTD SVG 1.1//EN" "http://www.w3.org/Graphics/SVG/1.1/DTD/svg11.dtd">
<svg version="1.1" id="Calque_1" xmlns="http://www.w3.org/2000/svg" xmlns:xlink="http://www.w3.org/1999/xlink" x="0px" y="0px"
	 width="39px" height="18.8px" viewBox="-0.334 52.584 39 18.8" enable-background="new -0.334 52.584 39 18.8"
	 xml:space="preserve">
<g>
	<defs>
		<rect id="SVGID_1_" x="-0.334" y="52.584" width="39" height="18.8"/>
	</defs>
	<clipPath id="SVGID_2_">
		<use xlink:href="#SVGID_1_"  overflow="visible"/>
	</clipPath>
	<g clip-path="url(#SVGID_2_)">
		<path fill-rule="evenodd" clip-rule="evenodd" d="M40.016,41.36c-0.062,0.091-0.104,0.209-0.188,0.267
			c-0.188,0.128-0.438,0.186-0.592,0.342c-6.453,6.583-12.898,13.173-19.345,19.764c-0.135,0.138-0.261,0.284-0.471,0.515
			c0-6.928,0-13.74,0-20.618c-0.224,0-0.396,0-0.568,0c-6.546,0-13.092,0.002-19.638-0.007c-0.171,0-0.502,0.167-0.448-0.262
			C12.515,41.36,26.266,41.36,40.016,41.36z"/>
		<path fill-rule="evenodd" clip-rule="evenodd" d="M-0.607,82.79c0.097-0.129,0.182-0.271,0.293-0.386
			c6.268-6.41,12.537-12.818,18.807-19.227c0.269-0.275,0.536-0.551,0.897-0.923c0,6.927,0,13.731,0,20.535
			C12.724,82.79,6.059,82.79-0.607,82.79z"/>
		<path fill-rule="evenodd" clip-rule="evenodd" d="M-1.224,62.223c0-6.671,0-13.314,0-19.957c0.031-0.024,0.063-0.05,0.094-0.074
			c6.809,6.655,13.617,13.312,20.491,20.031C12.448,62.223,5.633,62.223-1.224,62.223z"/>
		<path fill-rule="evenodd" clip-rule="evenodd" d="M19.409,62.274c6.94,0,13.75,0,20.575,0c0,6.672,0,13.325,0,20.114
			C33.094,75.653,26.289,69,19.409,62.274z"/>
	</g>
</g>
</svg>
