<?xml version="1.0" encoding="utf-8"?>
<!-- Generator: Adobe Illustrator 18.0.0, SVG Export Plug-In . SVG Version: 6.00 Build 0)  -->
<!DOCTYPE svg PUBLIC "-//W3C//DTD SVG 1.1//EN" "http://www.w3.org/Graphics/SVG/1.1/DTD/svg11.dtd">
<svg version="1.1" id="Capa_1" xmlns="http://www.w3.org/2000/svg" xmlns:xlink="http://www.w3.org/1999/xlink" x="0px" y="0px"
	 viewBox="10 -2 20.4 21.2" enable-background="new 10 -2 20.4 21.2" xml:space="preserve">
<g>
	<path d="M24.5,4.7c-0.4-0.4-0.8-0.5-1.3-0.5h-6c-0.5,0-0.9,0.2-1.3,0.5S15.4,5.5,15.4,6v6c0,0.5,0.2,0.9,0.5,1.3
		c0.4,0.4,0.8,0.5,1.3,0.5h6c0.5,0,0.9-0.2,1.3-0.5c0.4-0.4,0.5-0.8,0.5-1.3V6C25,5.5,24.8,5,24.5,4.7z"/>
</g>
<g>
	<path fill="none" stroke="#000000" stroke-width="2" stroke-miterlimit="10" d="M28.3,1c-0.7-0.7-1.5-1-2.4-1H14.6
		c-0.9,0-1.7,0.3-2.4,1c-0.7,0.7-1,1.5-1,2.4v11.3c0,0.9,0.3,1.7,1,2.4c0.7,0.7,1.5,1,2.4,1h11.3c0.9,0,1.7-0.3,2.4-1
		c0.7-0.7,1-1.5,1-2.4V3.4C29.3,2.4,28.9,1.6,28.3,1z"/>
</g>
</svg>
