<?xml version="1.0" encoding="utf-8"?>
<!-- Generator: Adobe Illustrator 16.0.0, SVG Export Plug-In . SVG Version: 6.00 Build 0)  -->
<!DOCTYPE svg PUBLIC "-//W3C//DTD SVG 1.1//EN" "http://www.w3.org/Graphics/SVG/1.1/DTD/svg11.dtd">
<svg version="1.1" id="Layer_1" xmlns="http://www.w3.org/2000/svg" xmlns:xlink="http://www.w3.org/1999/xlink" x="0px" y="0px"
	 width="39px" height="18.799px" viewBox="0 0 39 18.799" enable-background="new 0 0 39 18.799" xml:space="preserve">
<g>
	<defs>
		<rect id="SVGID_1_" width="39" height="18.799"/>
	</defs>
	<clipPath id="SVGID_2_">
		<use xlink:href="#SVGID_1_"  overflow="visible"/>
	</clipPath>
	<g clip-path="url(#SVGID_2_)">
		<path fill-rule="evenodd" clip-rule="evenodd" d="M16.468-10.927c-0.634,0.147-1.271,0.287-1.902,0.445
			c-1.557,0.387-3.079,0.887-4.466,1.7C8.924-8.094,7.759-7.37,6.667-6.557c-1.497,1.114-2.733,2.5-3.82,4.022
			C1.73-0.97,0.836,0.707,0.204,2.522c-0.533,1.529-0.952,3.085-1.055,4.711c-0.004,0.07-0.043,0.137-0.065,0.206
			c0-4.488,0-8.975,0-13.462c1.448-1.821,3.055-3.483,4.903-4.903C8.147-10.927,12.308-10.927,16.468-10.927z"/>
		<path fill-rule="evenodd" clip-rule="evenodd" d="M39.916,7.439c-0.087-0.532-0.179-1.064-0.261-1.597
			c-0.273-1.769-0.833-3.442-1.581-5.067c-0.699-1.519-1.568-2.924-2.609-4.225c-1.166-1.458-2.516-2.723-4.038-3.809
			c-1.565-1.117-3.233-2.043-5.063-2.63c-1.21-0.388-2.464-0.64-3.698-0.955c-0.049-0.013-0.091-0.055-0.136-0.083
			c4.161,0,8.321,0,12.481,0c0.477,0.396,0.993,0.755,1.422,1.198c1.18,1.216,2.324,2.468,3.482,3.706
			C39.916-1.536,39.916,2.951,39.916,7.439z"/>
		<path fill-rule="evenodd" clip-rule="evenodd" d="M-0.917,11.361c0.087,0.533,0.178,1.064,0.26,1.596
			c0.273,1.77,0.833,3.443,1.58,5.066c0.699,1.518,1.568,2.922,2.608,4.225c1.165,1.457,2.515,2.721,4.035,3.809
			c1.576,1.127,3.264,2.041,5.099,2.652c1.054,0.352,2.153,0.568,3.232,0.846c0.153,0.039,0.308,0.07,0.461,0.152
			c-0.114,0.006-0.228,0.018-0.341,0.018c-3.875,0.002-7.75,0.006-11.625-0.01c-0.241,0-0.523-0.107-0.715-0.256
			c-1.629-1.258-3.063-2.717-4.332-4.336c-0.082-0.104-0.174-0.199-0.262-0.299C-0.917,20.335-0.917,15.849-0.917,11.361z"/>
		<path fill-rule="evenodd" clip-rule="evenodd" d="M39.916,24.824c-1.154,1.234-2.263,2.512-3.473,3.688
			c-1.292,1.258-1.333,1.215-3.128,1.215c-3.4,0-6.8,0-10.2,0c-0.163,0-0.325,0-0.488,0c-0.001-0.012-0.002-0.021-0.003-0.033
			c0.831-0.195,1.669-0.367,2.492-0.592c1.955-0.539,3.777-1.379,5.48-2.475c1.33-0.855,2.548-1.846,3.643-2.988
			c1.341-1.4,2.463-2.951,3.374-4.666c0.72-1.357,1.293-2.768,1.664-4.25c0.259-1.035,0.385-2.104,0.572-3.156
			c0.013-0.07,0.044-0.137,0.067-0.205C39.916,15.849,39.916,20.335,39.916,24.824z"/>
		<path fill-rule="evenodd" clip-rule="evenodd" d="M34.814,9.394c0.004,8.436-6.882,15.325-15.319,15.321
			c-8.438-0.002-15.32-6.893-15.311-15.33c0.009-8.421,6.876-15.289,15.297-15.3C27.918-5.925,34.811,0.956,34.814,9.394z
			 M9.245,9.379c0.082,5.798,4.526,10.116,9.933,10.253c6.099,0.156,10.45-4.572,10.557-9.967c0.119-6.043-4.57-10.393-9.981-10.502
			C13.77-0.958,9.319,3.74,9.245,9.379z"/>
		<path fill-rule="evenodd" clip-rule="evenodd" d="M24.561,9.467c-0.051,2.785-2.357,5.037-5.116,4.994
			c-2.8-0.041-5.074-2.381-5.005-5.149c0.068-2.791,2.384-5.031,5.138-4.972C22.365,4.399,24.611,6.709,24.561,9.467z"/>
	</g>
</g>
</svg>
