<?xml version="1.0" encoding="utf-8"?>
<!-- Generator: Adobe Illustrator 16.0.0, SVG Export Plug-In . SVG Version: 6.00 Build 0)  -->
<!DOCTYPE svg PUBLIC "-//W3C//DTD SVG 1.1//EN" "http://www.w3.org/Graphics/SVG/1.1/DTD/svg11.dtd">
<svg version="1.1" id="Layer_1" xmlns="http://www.w3.org/2000/svg" xmlns:xlink="http://www.w3.org/1999/xlink" x="0px" y="0px"
	 width="39px" height="18.8px" viewBox="0 0 39 18.8" enable-background="new 0 0 39 18.8" xml:space="preserve">
<g>
	<defs>
		<rect id="SVGID_1_" width="39" height="18.8"/>
	</defs>
	<clipPath id="SVGID_2_">
		<use xlink:href="#SVGID_1_"  overflow="visible"/>
	</clipPath>
	<g clip-path="url(#SVGID_2_)">
		<path fill-rule="evenodd" clip-rule="evenodd" d="M-0.924,10.009c0.06-0.225,0.124-0.45,0.177-0.676
			C0.717,3.256,4.098-1.302,9.919-3.693c5.025-2.065,9.953-1.688,14.43,1.564c3.261,2.368,5.064,5.641,4.985,9.757
			c-0.059,3.198-1.34,5.829-4.109,7.561c-1.492,0.938-3.131,1.248-4.86,0.783c-1.187-0.318-2.146-0.975-2.73-2.094
			c-0.396-0.762-0.504-1.563-0.134-2.367c0.296-0.646,0.793-1.025,1.523-1.064c0.873-0.049,1.583-0.754,1.704-1.694
			c0.181-1.388-0.482-2.395-1.51-3.192c-0.911-0.706-2.007-0.982-3.12-0.977c-1.313,0.006-2.563,0.407-3.661,1.156
			c-2.277,1.553-3.513,3.751-3.846,6.48c-0.415,3.41,0.65,6.35,2.819,8.936c1.708,2.039,3.883,3.367,6.389,4.133
			c0.942,0.285,1.943,0.383,2.92,0.547c1.332,0.223,2.666,0.1,3.977-0.113c1.651-0.27,3.241-0.799,4.734-1.582
			c3.561-1.871,6.178-4.654,7.937-8.283c0.793-1.637,1.323-3.352,1.699-5.135c0,0.186,0,0.371,0,0.557
			c0,5.871-0.005,11.744,0.011,17.617c0.002,0.434-0.125,0.713-0.464,0.953c-0.304,0.215-0.572,0.482-0.855,0.729
			c-10.245,0-20.49,0-30.736,0c-0.116-0.123-0.223-0.258-0.35-0.369c-3.901-3.344-6.445-7.508-7.488-12.576
			c-0.023-0.113-0.071-0.219-0.107-0.328C-0.924,14.873-0.924,12.441-0.924,10.009z"/>
		<path fill-rule="evenodd" clip-rule="evenodd" d="M39.001-9.759c0,4.508,0.076,9.017,0.076,13.642
			c-0.207-0.846-0.452-1.58-0.647-2.309c-0.523-1.945-1.344-3.761-2.384-5.48c-0.87-1.436-1.91-2.736-3.062-3.944
			c-0.538-0.566-1.153-1.06-1.729-1.59c-0.105-0.096-0.193-0.213-0.287-0.318C33.646-9.759,36.322-9.759,39.001-9.759z"/>
		<path fill-rule="evenodd" clip-rule="evenodd" d="M0.056-9.759C-0.293-9.466-0.643-9.173-0.991-8.88c0-0.287,0-0.572,0-0.879
			C-0.643-9.759-0.293-9.759,0.056-9.759z"/>
	</g>
</g>
</svg>
